<?xml version="1.0" standalone="no"?>
<!DOCTYPE svg PUBLIC "-//W3C//DTD SVG 20010904//EN"
 "http://www.w3.org/TR/2001/REC-SVG-20010904/DTD/svg10.dtd">
<svg version="1.0" xmlns="http://www.w3.org/2000/svg"
 width="16.000000pt" height="16.000000pt" viewBox="0 0 16.000000 16.000000"
 preserveAspectRatio="xMidYMid meet">
<metadata>
Created by potrace 1.11, written by Peter Selinger 2001-2013
</metadata>
<g transform="translate(0.000000,16.000000) scale(0.003077,-0.003077)"
fill="#000000" stroke="none">
<path d="M2522 4570 c-6 -11 -12 -29 -12 -41 0 -11 -11 -35 -25 -53 -14 -18
-25 -44 -25 -58 0 -13 -11 -35 -25 -48 -17 -16 -23 -30 -19 -42 4 -13 -3 -28
-20 -45 -16 -16 -26 -37 -26 -54 0 -16 -4 -29 -10 -29 -5 0 -10 -6 -10 -14 0
-7 -7 -19 -15 -26 -9 -7 -14 -19 -11 -25 2 -7 -6 -29 -20 -48 -13 -20 -24 -45
-24 -57 0 -11 -8 -30 -18 -41 -11 -11 -24 -37 -31 -58 -6 -21 -18 -44 -26 -51
-8 -7 -15 -28 -15 -46 0 -19 -4 -34 -10 -34 -11 0 -44 -60 -36 -67 3 -3 -6
-20 -19 -38 -14 -17 -25 -40 -25 -49 0 -10 -9 -31 -21 -47 -11 -16 -22 -41
-24 -55 -1 -14 -12 -35 -24 -48 -11 -12 -21 -34 -21 -47 0 -14 -9 -35 -20 -47
-11 -12 -20 -31 -20 -42 0 -12 -11 -36 -24 -53 -13 -18 -29 -50 -36 -71 -7
-22 -21 -49 -32 -60 -10 -11 -16 -26 -14 -33 3 -6 -4 -23 -15 -36 -10 -14 -19
-34 -19 -44 0 -10 -4 -23 -9 -28 -20 -22 -51 -87 -45 -96 3 -6 -3 -18 -14 -28
-12 -9 -24 -30 -28 -47 -4 -16 -18 -50 -31 -75 -13 -26 -23 -51 -23 -57 0 -5
-7 -12 -15 -16 -8 -3 -15 -14 -15 -25 0 -11 -5 -23 -10 -26 -6 -4 -8 -11 -5
-16 4 -5 -6 -25 -21 -44 -20 -26 -24 -39 -16 -47 8 -8 5 -16 -12 -29 -13 -10
-29 -33 -36 -51 -13 -36 -43 -105 -68 -156 -8 -17 -19 -32 -24 -32 -4 0 -8
-12 -8 -27 0 -16 -9 -39 -20 -53 -11 -14 -20 -35 -20 -47 0 -12 -4 -24 -9 -28
-13 -7 -41 -64 -41 -82 0 -7 -4 -13 -10 -13 -5 0 -10 -9 -10 -20 0 -11 -4 -20
-10 -20 -5 0 -10 -10 -10 -22 0 -11 -11 -36 -25 -54 -14 -18 -25 -42 -25 -54
0 -11 -9 -30 -20 -42 -11 -12 -20 -34 -20 -48 0 -30 -47 -81 -58 -64 -9 14
-178 18 -187 5 -4 -7 -12 -7 -25 1 -15 10 -22 10 -32 0 -6 -6 -21 -12 -33 -12
-12 0 -30 -6 -40 -14 -10 -7 -27 -11 -38 -8 -12 3 -27 -4 -42 -22 -12 -14 -33
-26 -46 -26 -28 0 -54 -20 -147 -110 -76 -75 -122 -132 -122 -153 0 -8 -10
-26 -21 -41 -12 -15 -22 -38 -22 -52 0 -13 -3 -27 -8 -30 -5 -3 -9 -17 -9 -32
0 -15 -6 -34 -13 -43 -17 -23 -16 -221 2 -243 7 -8 10 -20 6 -26 -3 -6 1 -24
9 -42 9 -17 16 -39 16 -48 0 -16 15 -45 72 -141 37 -62 189 -199 220 -199 10
0 18 -4 18 -10 0 -5 7 -10 16 -10 9 0 28 -8 42 -18 46 -32 204 -59 307 -54 11
1 39 1 63 2 23 0 50 4 60 9 9 5 38 17 65 26 26 9 47 21 47 26 0 5 14 9 30 9
17 0 30 5 30 10 0 6 6 10 13 10 18 0 217 198 217 216 0 8 5 14 10 14 6 0 10
11 10 25 0 15 11 36 26 50 17 16 24 30 20 41 -4 9 0 24 8 33 7 9 16 36 20 61
18 139 18 153 5 161 -10 6 -11 9 -1 9 14 0 16 36 2 45 -5 3 -10 24 -10 45 0
21 -4 42 -10 45 -5 3 -10 19 -10 35 0 16 -4 31 -9 35 -6 3 -2 21 8 43 20 39
55 117 65 142 4 8 15 29 25 45 11 17 20 37 20 45 1 13 27 74 52 120 5 8 16 31
25 50 9 19 24 52 35 73 10 22 19 48 19 58 0 11 7 22 15 25 8 4 15 14 15 24 0
11 5 22 10 25 6 3 10 15 10 26 0 10 3 19 8 19 4 0 13 15 20 33 7 17 18 39 23
47 5 8 12 22 15 30 3 8 10 23 15 32 5 10 9 23 9 30 0 7 9 24 20 38 11 14 20
35 20 48 0 13 11 33 25 46 14 13 25 34 25 47 0 13 9 35 20 49 11 14 20 34 20
46 0 12 11 38 25 58 14 20 25 45 25 54 0 9 9 28 20 42 11 14 20 35 20 47 0 12
4 24 9 28 14 8 41 65 41 87 0 10 5 18 10 18 6 0 10 7 10 15 0 8 5 15 10 15 6
0 10 12 10 26 0 14 11 39 25 56 14 16 25 40 25 54 0 13 3 24 8 24 9 0 32 49
32 68 0 8 11 27 25 44 14 16 25 41 25 55 0 14 9 34 21 44 12 10 22 31 22 46 1
15 7 34 14 41 9 10 15 8 27 -10 9 -12 16 -29 16 -38 0 -9 9 -23 20 -33 11 -9
20 -24 20 -34 0 -9 6 -24 14 -32 8 -9 35 -55 59 -103 25 -48 54 -100 66 -117
12 -16 21 -34 21 -39 0 -6 5 -12 10 -14 6 -2 12 -14 13 -27 1 -12 12 -34 24
-48 13 -13 21 -28 18 -33 -3 -5 -1 -11 5 -15 5 -3 17 -21 26 -40 9 -19 20 -35
25 -35 5 0 9 -5 9 -12 0 -18 52 -118 61 -118 5 0 9 -9 9 -20 0 -11 5 -20 10
-20 6 0 10 -7 10 -15 0 -8 5 -15 10 -15 6 0 10 -6 10 -12 0 -7 6 -24 14 -38 7
-14 28 -52 46 -85 18 -33 39 -71 46 -85 8 -14 14 -31 14 -37 0 -7 4 -13 9 -13
5 0 11 -8 14 -17 8 -23 55 -104 73 -124 8 -8 14 -23 14 -33 0 -9 9 -26 20 -38
11 -12 20 -30 20 -40 0 -10 4 -18 9 -18 11 0 61 -97 61 -117 0 -8 7 -16 15
-19 8 -3 17 -16 21 -27 4 -12 17 -35 29 -52 13 -16 29 -48 36 -70 7 -22 23
-50 36 -61 13 -12 23 -31 23 -43 0 -11 3 -21 8 -21 4 0 12 -10 18 -23 26 -53
86 -162 104 -187 11 -16 20 -33 20 -39 0 -7 7 -14 15 -17 8 -4 15 -12 15 -18
0 -18 24 -66 33 -66 4 0 7 -9 7 -20 0 -11 7 -28 16 -37 29 -34 74 -108 74
-125 0 -9 4 -20 10 -23 5 -3 17 -21 26 -40 9 -19 20 -35 25 -35 5 0 9 -9 9
-20 0 -11 4 -20 9 -20 5 0 11 -12 14 -27 3 -16 15 -38 26 -50 12 -12 21 -28
21 -36 0 -8 9 -22 20 -32 11 -10 20 -26 20 -37 0 -10 4 -18 8 -18 10 0 62 -99
62 -118 0 -6 5 -12 10 -12 6 0 10 -7 10 -15 0 -8 5 -15 10 -15 6 0 10 -7 10
-15 0 -8 12 -28 26 -44 21 -24 33 -29 75 -29 30 0 49 5 49 12 0 8 2 8 8 0 10
-15 192 -16 192 -1 0 7 4 7 12 -1 16 -16 95 -16 101 1 4 8 8 9 14 1 12 -16
134 -18 145 -2 6 10 8 10 8 1 0 -14 81 -19 93 -7 4 4 -2 19 -13 34 -11 16 -20
32 -20 37 0 5 -11 20 -25 33 -14 13 -25 31 -25 41 0 10 -4 21 -10 24 -5 3 -10
15 -10 27 0 11 -12 29 -26 40 -14 11 -23 26 -20 33 3 8 -2 19 -10 25 -8 7 -14
18 -14 24 0 7 -8 21 -17 32 -10 10 -24 33 -32 49 -7 17 -17 37 -21 45 -14 29
-63 115 -76 135 -8 11 -14 27 -14 37 0 10 -4 18 -10 18 -5 0 -10 5 -10 11 0 6
-13 29 -28 52 -15 23 -36 59 -47 80 -11 20 -23 37 -27 37 -5 0 -8 7 -8 15 0 8
-8 29 -19 47 -48 85 -57 98 -63 98 -5 0 -8 12 -8 28 0 16 -8 32 -20 40 -11 7
-20 20 -20 30 0 10 -11 29 -25 42 -14 13 -25 32 -25 42 0 10 -3 18 -8 18 -4 0
-15 17 -25 37 -9 21 -21 45 -26 53 -5 8 -16 31 -25 50 -8 20 -26 49 -40 65
-14 17 -26 35 -26 41 0 6 -7 17 -15 24 -8 7 -15 22 -15 35 0 12 -9 30 -20 40
-11 10 -20 26 -20 36 0 9 -4 19 -9 21 -8 3 -42 61 -90 154 -12 22 -30 50 -41
62 -11 12 -20 28 -20 36 0 8 -4 18 -10 21 -5 3 -10 13 -10 22 0 9 -11 31 -25
49 -14 18 -25 40 -25 48 0 9 -4 16 -10 16 -5 0 -10 5 -10 11 0 5 -11 27 -25
47 -14 20 -25 44 -25 53 0 9 -9 24 -20 34 -11 10 -20 26 -20 37 0 10 -4 18
-10 18 -5 0 -10 7 -10 15 0 8 -4 15 -10 15 -5 0 -10 6 -10 14 0 7 -7 19 -15
26 -8 7 -15 20 -15 30 0 9 -9 29 -20 43 -11 14 -20 32 -20 41 0 9 -3 16 -7 16
-11 0 -43 58 -43 76 0 8 -4 14 -10 14 -5 0 -10 6 -10 13 0 6 -9 23 -20 37 -11
14 -20 31 -20 38 0 7 -11 25 -25 40 -14 15 -25 34 -25 44 0 9 -4 20 -10 23 -5
3 -10 14 -10 24 0 9 -10 28 -22 41 -13 14 -22 29 -20 34 2 6 -3 15 -10 21 -7
5 -19 24 -27 40 -7 17 -17 37 -22 45 -5 8 -16 30 -24 48 -9 17 -20 32 -25 32
-6 0 -10 9 -10 20 0 11 -4 20 -10 20 -5 0 -10 7 -10 15 0 8 -4 15 -10 15 -5 0
-10 7 -10 16 0 8 -7 22 -15 30 -8 9 -15 23 -15 33 0 9 -9 27 -20 39 -11 12
-20 28 -20 37 0 8 -3 15 -8 15 -4 0 -12 12 -18 28 -7 15 -14 34 -18 42 -3 8
-17 33 -31 55 -14 22 -36 63 -50 91 -14 29 -32 57 -40 64 -8 7 -15 23 -15 36
0 13 -4 24 -8 24 -5 0 -19 20 -32 45 -13 25 -29 50 -37 56 -7 6 -13 22 -13 35
0 14 -6 24 -15 24 -8 0 -12 6 -9 14 3 8 -4 25 -15 37 -12 13 -21 28 -21 35 0
6 -7 17 -15 24 -8 7 -15 20 -15 29 0 9 -9 27 -20 41 -11 14 -20 31 -20 37 0 7
-8 22 -17 32 -22 26 -73 119 -73 133 0 6 -15 31 -33 57 -19 25 -37 54 -40 64
-8 22 -19 22 -35 -3z"/>
</g>
</svg>
